<svg xmlns="http://www.w3.org/2000/svg"><ellipse cx="280" cy="270" fill="rgba(194, 199, 199, 0.742)" rx="60" ry="15"/><ellipse cx="500" cy="270" fill="rgba(194, 199, 199, 0.742)" rx="60" ry="15"/><circle cx="280" cy="195" r="76" fill="orange"/><circle cx="500" cy="195" r="76" fill="#FBEB0B"/><circle cx="310" cy="180" r="30" fill="#fff"/><circle cx="275" cy="180" r="30" fill="#fff"/><circle cx="495" cy="180" r="30" fill="#fff"/><circle cx="460" cy="180" r="30" fill="#fff"/><circle cx="490" cy="180" r="7"/><circle cx="455" cy="180" r="7"/><circle cx="315" cy="180" r="7"/><circle cx="280" cy="180" r="7"/><circle cx="297" cy="210" r="9"/><ellipse cx="285" cy="235" fill="red" rx="12" ry="7"/><ellipse cx="475" cy="230" fill="red" rx="6" ry="12"/><path fill="orange" d="m300 122 30-12 5 35z"/><path d="m306 123 22-9 4 24z"/><path fill="orange" d="m226 144 4-32 30 10z"/><path d="m229 140 3-25 26 9z"/><ellipse cx="220" cy="150" fill="orange" rx="50" ry="20" transform="rotate(15)"/><path fill="#fff" d="m128 190 27-10-8 30z"/></svg>